PathFileType	4	(X/Y/Z)	C:\Users\dbl\Desktop\20210112(1)\20210112\bx_y_0_1802.trc
DataRate	CameraRate	NumFrames	NumMarkers	Units	OrigDataRate	OrigDataStartFrame	OrigNumFrames
50.00	50.00	       4	43	mm	50.00	235	       375
Frame#	Time	Top.Head			R.Acromium			L.Acromium			Sternum			R.ASIS			L.ASIS			V.Sacral			R.Thigh.Upper			R.Thigh.Front			R.Thigh.Rear			R.Knee.Lat			R.Knee.Med			R.Shank.Upper			R.Shank.Front			R.Shank.Rear			R.Ankle.Lat			R.Midfoot.Lat			R.Toe.Lat			R.Toe.Tip			R.Toe.Med			R.Ankle.Med			R.Midfoot.Sup			R.Heel			L.Thigh.Upper			L.Thigh.Front			L.Thigh.Rear			L.Knee.Lat			L.Knee.Med			L.Shank.Upper			L.Shank.Front			L.Shank.Rear			L.Ankle.Lat			L.Midfoot.Lat			L.Toe.Lat			L.Toe.Tip			L.Toe.Med			L.Ankle.Med			L.Midfoot.Sup			L.Heel			origin1 front left			origin2 front right			origin 3 back right			origin 4 back leftt			
		X1	Y1	Z1	X2	Y2	Z2	X3	Y3	Z3	X4	Y4	Z4	X5	Y5	Z5	X6	Y6	Z6	X7	Y7	Z7	X8	Y8	Z8	X9	Y9	Z9	X10	Y10	Z10	X11	Y11	Z11	X12	Y12	Z12	X13	Y13	Z13	X14	Y14	Z14	X15	Y15	Z15	X16	Y16	Z16	X17	Y17	Z17	X18	Y18	Z18	X19	Y19	Z19	X20	Y20	Z20	X21	Y21	Z21	X22	Y22	Z22	X23	Y23	Z23	X24	Y24	Z24	X25	Y25	Z25	X26	Y26	Z26	X27	Y27	Z27	X28	Y28	Z28	X29	Y29	Z29	X30	Y30	Z30	X31	Y31	Z31	X32	Y32	Z32	X33	Y33	Z33	X34	Y34	Z34	X35	Y35	Z35	X36	Y36	Z36	X37	Y37	Z37	X38	Y38	Z38	X39	Y39	Z39	X40	Y40	Z40	X41	Y41	Z41	X42	Y42	Z42	X43	Y43	Z43	

235	4.680	-543.34906	87.69451	1772.59192	-559.57318	-100.11786	1464.95923	-569.36884	262.92987	1470.49719	-544.44507	75.13273	1340.06750	-686.25940	-26.72582	1018.97913	-681.31183	193.53497	1033.25146	-883.71796	71.38885	1046.05969	-701.33624	-94.66705	848.80469	-625.32910	-29.38461	817.89819	-692.28003	-69.63761	702.21313	-652.24469	-47.78556	605.22626	-620.53979	59.64506	574.20374	-653.87592	-43.94078	554.83685	-608.91589	-2.53359	502.81494	-713.99634	-46.43795	482.02850	-763.34674	-3.82219	207.70471	-666.74463	-68.12389	161.50923	-625.74561	-80.06602	157.70059	-561.40747	-44.38197	162.32761	-602.72913	17.57088	167.67401	-708.94006	77.13805	212.79826	-673.65204	55.75153	157.22249	-791.36395	59.84993	177.11388	-704.52509	267.21335	877.53064	-626.60321	204.03117	835.18518	-698.21423	267.59857	739.48431	-669.73962	244.58818	626.22406	-608.66785	144.81259	573.59625	-654.30170	243.66550	568.63159	-602.07983	205.77637	519.16968	-704.13690	251.28053	499.49673	-766.75653	219.84692	206.81622	-667.10144	297.04630	162.24100	-630.06335	304.84671	162.97021	-561.07654	262.83383	165.45345	-594.82623	222.65392	173.67392	-704.35046	149.23064	210.74916	-674.64624	171.88362	154.15968	-793.45599	168.40175	186.68590	-527.99042	304.13367	146.58823	-517.73004	-72.65629	143.06021	-875.94104	-78.68750	141.34683	-882.53705	296.16055	144.73067	
236	4.700	-549.49347	87.80568	1778.24805	-562.83807	-100.35283	1470.57874	-573.05054	262.82025	1475.47644	-546.19141	74.80180	1345.51489	-683.70044	-27.04457	1021.88324	-678.96277	193.04024	1036.58032	-881.44940	71.03574	1047.58765	-699.60748	-94.65853	850.09949	-624.15063	-29.15291	818.38373	-692.58398	-69.02371	703.21124	-653.89447	-47.20006	605.83954	-623.17084	60.41406	574.45880	-655.90515	-43.27510	555.36700	-610.80774	-1.97215	503.40588	-715.67377	-46.05424	482.38712	-763.52289	-4.06173	207.66905	-666.78247	-68.20074	161.49338	-625.71124	-80.14574	157.72675	-561.47949	-44.27712	162.35138	-602.80341	17.57612	167.70848	-708.84668	77.10815	212.96606	-673.74200	55.61128	157.44893	-791.56567	59.58546	177.01968	-701.92438	266.85522	877.32483	-625.40741	203.40816	835.50549	-698.04517	266.94135	740.64893	-671.41809	243.97208	627.11877	-611.13611	143.97450	574.10406	-656.54688	242.99940	569.30865	-604.42639	205.05917	519.95447	-706.21558	250.84679	500.01486	-766.84845	219.86440	206.79089	-667.10004	297.05600	162.25783	-630.08319	304.87012	163.00482	-561.19855	262.78061	165.42841	-594.95752	222.65027	173.71606	-704.33813	149.33527	210.99913	-674.63965	171.89029	154.22536	-793.57849	168.51503	186.62431	-527.96375	304.09409	146.57512	-517.77356	-72.69273	143.04073	-875.96161	-78.68417	141.35223	-882.55469	296.12613	144.67320	
237	4.720	-555.64435	87.84885	1783.78345	-566.16772	-100.57129	1476.15381	-576.80811	262.62521	1480.40967	-547.98016	74.48051	1350.94116	-681.09894	-27.28740	1024.71057	-676.45911	192.72528	1039.89392	-879.06915	70.82954	1049.07764	-697.95386	-94.61940	851.46118	-622.96423	-28.86891	818.79669	-692.84082	-68.41683	704.25781	-655.64948	-46.58981	606.42303	-625.86060	61.13439	574.71716	-658.00134	-42.59367	555.89819	-612.75409	-1.39534	504.09924	-717.38239	-45.65171	482.69745	-763.70813	-4.21130	207.63617	-666.80261	-68.23846	161.49321	-625.66010	-80.18533	157.77394	-561.57971	-44.12875	162.31654	-602.83441	17.61189	167.77460	-708.83545	77.19027	213.14574	-673.86035	55.51299	157.66814	-791.81195	59.35491	176.95090	-699.52686	266.43970	877.82043	-624.16254	202.83549	835.86731	-697.78845	266.24316	741.73438	-673.07294	243.49998	628.05188	-613.74371	143.25198	574.44055	-658.79303	242.35966	569.96765	-606.73578	204.32793	520.69019	-708.25330	250.44559	500.46985	-766.97754	219.87839	206.72067	-667.11688	297.07840	162.22969	-630.09955	304.93085	163.04816	-561.29626	262.72482	165.41504	-595.09381	222.64555	173.73929	-704.50250	149.43958	211.28430	-674.69202	171.90067	154.31535	-793.73712	168.66504	186.53867	-527.94678	304.07159	146.54451	-517.83813	-72.71095	142.99966	-875.98883	-78.68475	141.36891	-882.56586	296.09427	144.60612	
238	4.740	-561.69061	87.81443	1789.19470	-569.54230	-100.72462	1481.64087	-580.66205	262.42258	1485.28906	-549.82556	74.24075	1356.30688	-678.45947	-27.44850	1027.40039	-673.80829	192.58321	1043.12476	-876.61932	70.78636	1050.50061	-696.43463	-94.52392	852.95044	-621.80182	-28.52774	819.12646	-693.03711	-67.81371	705.38574	-657.46405	-46.00502	607.04236	-628.38177	61.71480	575.11877	-660.13635	-41.97181	556.46130	-614.72607	-0.89630	504.90421	-719.16571	-45.23673	482.94434	-763.93860	-4.33821	207.55766	-666.79993	-68.25503	161.49687	-625.60693	-80.19902	157.81584	-561.67493	-43.94133	162.27325	-602.87164	17.62671	167.86461	-708.99701	77.28773	213.35632	-674.00067	55.43824	157.85139	-792.04138	59.14455	176.90053	-697.27087	266.10123	878.90338	-622.87915	202.26015	836.26080	-697.44067	265.54639	742.81689	-674.69086	243.06174	628.99841	-616.45020	142.57495	574.65698	-661.00153	241.72264	570.63098	-608.98431	203.60869	521.35968	-710.23370	250.07375	500.90714	-767.13385	219.88226	206.62823	-667.12701	297.08786	162.20576	-630.09241	305.00388	163.10941	-561.35748	262.66748	165.43552	-595.18665	222.63960	173.72394	-704.76776	149.56857	211.52562	-674.82697	171.92029	154.45050	-793.91846	168.82184	186.44536	-527.95441	304.07025	146.51074	-517.86963	-72.70206	142.97009	-876.00922	-78.68734	141.38153	-882.56622	296.06812	144.54875	
